# xmcd
#
# Track frame offsets:
#  182
#  9565
#  20617
#  32532
#  42735
#  53862
#  67517
#  79002
#  89190
#  97920
#
# Disc length: 1427 seconds
#
# Revision: 1
# Processed by: cddbd v1.5.1PL2 Copyright (c) Steve Scherf et al.
# Submitted via: Collectorz.com_Music_Collector 6.10
#
DISCID=7505910a
DTITLE=Canned Heat - Big Road Blues
DYEAR=1992
DGENRE=Blues Rock
TTITLE0=Hite, Bob - Wilson, Alan - Taylor, Larry - Vestine, Henry - Cook, Frank - Big Road Blues
TTITLE1=James, Elmore - Can't Hold On
TTITLE2=Morganfield, McKinley - Got My Mojo Working
TTITLE3=James, Elmore - Sehorn - Rollin' And Tumblin'
TTITLE4=Dixon, Willie - Spoonful
TTITLE5=Lee Hooker, John - Louise
TTITLE6=Hite, Bob - Wilson, Alan - Taylor, Larry - Vestine, Henry - Cook, Frank - Big Road Blues (Reprise)
TTITLE7=Lee Hooker, John - Dimples
TTITLE8=Dixon, Willie - Pretty Thing
TTITLE9=James, Elmore - Sehorn - Rollin' And Tumblin' (With Harmonica)
EXTD=
EXTT0=
EXTT1=
EXTT2=
EXTT3=
EXTT4=
EXTT5=
EXTT6=
EXTT7=
EXTT8=
EXTT9=
PLAYORDER=
